<svg width="62" height="65" viewBox="0 0 62 65" fill="none" xmlns="http://www.w3.org/2000/svg">
<g clip-path="url(#clip0_28_26)">
<path d="M18.8638 24.7166H14.7001L9.09027 40.7499H13.2104L14.3539 37.4737H19.2099L20.3534 40.7499H24.4736L18.8638 24.7166ZM15.2898 34.8015L16.7819 30.542L18.2741 34.8042L15.2898 34.8015Z" fill="#262E47"/>
<path d="M37.9186 24.7165H28.945V40.7498H32.7908V35.4054H37.9186C38.4262 35.4152 38.9306 35.3182 39.4014 35.1202C39.8722 34.9222 40.2999 34.6273 40.659 34.2532C41.018 33.879 41.3009 33.4332 41.4908 32.9425C41.6808 32.4517 41.7738 31.9261 41.7644 31.397V28.7248C41.7738 28.1958 41.6808 27.6701 41.4908 27.1794C41.3009 26.6887 41.018 26.2429 40.659 25.8687C40.2999 25.4945 39.8722 25.1996 39.4014 25.0017C38.9306 24.8037 38.4262 24.7067 37.9186 24.7165V24.7165ZM37.9186 31.397H32.7908V28.7248H37.9186V31.397Z" fill="#262E47"/>
<path d="M46.2667 24.7166H50.1125V40.7499H46.2667V24.7166Z" fill="#262E47"/>
<path d="M56.5223 16.6997V48.7663H5.24448V16.6997H56.5223ZM56.5223 11.3552H5.24448C3.88451 11.3552 2.58024 11.9183 1.61859 12.9206C0.656946 13.9229 0.116699 15.2822 0.116699 16.6997L0.116699 48.7663C0.116699 50.1838 0.656946 51.5431 1.61859 52.5454C2.58024 53.5477 3.88451 54.1108 5.24448 54.1108H56.5223C57.8822 54.1108 59.1865 53.5477 60.1481 52.5454C61.1098 51.5431 61.65 50.1838 61.65 48.7663V16.6997C61.65 15.2822 61.1098 13.9229 60.1481 12.9206C59.1865 11.9183 57.8822 11.3552 56.5223 11.3552V11.3552Z" fill="#262E47"/>
</g>
<defs>
<clipPath id="clip0_28_26">
<rect width="61.5333" height="64.1333" fill="white" transform="translate(0.116699 0.666504)"/>
</clipPath>
</defs>
</svg>
