<svg width="67" height="70" viewBox="0 0 67 70" fill="none" xmlns="http://www.w3.org/2000/svg">
<g opacity="0.4">
<path d="M14.0889 20.3442H19.6111V49.122H14.0889V20.3442ZM38.9389 20.3442H41.7V49.122H38.9389V20.3442ZM27.8944 20.3442H36.1778V49.122H27.8944V20.3442ZM22.3722 20.3442H25.1333V49.122H22.3722V20.3442ZM44.4611 20.3442H52.7444V49.122H44.4611V20.3442Z" fill="#262E47"/>
<path d="M11.3278 14.5886H22.3722V8.83301H11.3278C8.28226 8.83301 5.80554 11.4144 5.80554 14.5886V26.0997H11.3278V14.5886ZM11.3278 60.633H22.3722V54.8774H11.3278V43.3663H5.80554V54.8774C5.80554 58.0516 8.28226 60.633 11.3278 60.633ZM55.5055 8.83301H44.4611V14.5886H55.5055V26.0997H61.0278V14.5886C61.0278 11.4144 58.551 8.83301 55.5055 8.83301ZM55.5055 54.8774H44.4611V60.633H55.5055C58.551 60.633 61.0278 58.0516 61.0278 54.8774V43.3663H55.5055V54.8774Z" fill="#262E47"/>
</g>
</svg>
