<svg width="63" height="65" viewBox="0 0 63 65" fill="none" xmlns="http://www.w3.org/2000/svg">
<path d="M60.1104 22.7124V42.7541H56.2645L52.4187 30.7291V42.7541H48.5729V22.7124H52.4187L56.2645 34.7374V22.7124H60.1104Z" fill="#262E47"/>
<path d="M41.5235 42.7541H36.3951C35.5454 42.7535 34.7307 42.4017 34.1297 41.7757C33.5287 41.1497 33.1906 40.3007 33.1896 39.4151V26.0533C33.1901 25.1678 33.5277 24.3186 34.1283 23.6922C34.7289 23.0659 35.5435 22.7135 36.3932 22.7124H41.5216C42.3712 22.7129 43.186 23.0648 43.787 23.6908C44.3879 24.3168 44.7261 25.1658 44.7271 26.0513V39.4131C44.7266 40.2987 44.3889 41.1479 43.7883 41.7742C43.1877 42.4006 42.3732 42.753 41.5235 42.7541ZM37.0354 38.7457H40.8812V26.7207H37.0354V38.7457Z" fill="#262E47"/>
<path d="M26.1401 42.7541H17.8062V38.7457H25.4979V34.7374H21.652C20.6324 34.7363 19.6548 34.3137 18.9338 33.5622C18.2127 32.8107 17.8072 31.7918 17.8062 30.7291V26.0513C17.8072 25.1661 18.1451 24.3175 18.7456 23.6915C19.3462 23.0656 20.1605 22.7135 21.0098 22.7124H29.3437V26.7207H21.652V30.7291H25.4979C26.5175 30.7301 27.4952 31.1528 28.2162 31.9043C28.9372 32.6557 29.3427 33.6747 29.3437 34.7374V39.4131C29.3432 40.2987 29.0056 41.1479 28.405 41.7742C27.8043 42.4006 26.9898 42.753 26.1401 42.7541V42.7541Z" fill="#262E47"/>
<path d="M10.7549 42.7541H5.62841C4.77875 42.7535 3.96401 42.4017 3.36302 41.7757C2.76204 41.1497 2.42393 40.3007 2.42291 39.4151V34.7374H6.26875V38.7457H10.1146V22.7124H13.9604V39.4151C13.9594 40.3007 13.6213 41.1497 13.0203 41.7757C12.4193 42.4017 11.6046 42.7535 10.7549 42.7541V42.7541Z" fill="#262E47"/>
</svg>
