<svg width="68" height="70" viewBox="0 0 68 70" fill="none" xmlns="http://www.w3.org/2000/svg">
<g opacity="0.4">
<path d="M34.0334 8.83301C31.5629 8.83301 29.148 9.61345 27.0939 11.0756C25.0398 12.5378 23.4388 14.6161 22.4934 17.0476C21.548 19.4792 21.3007 22.1548 21.7826 24.7361C22.2646 27.3174 23.4542 29.6885 25.2011 31.5495C26.948 33.4105 29.1736 34.6779 31.5966 35.1914C34.0195 35.7048 36.531 35.4413 38.8134 34.4341C41.0958 33.4269 43.0466 31.7213 44.4191 29.533C45.7916 27.3447 46.5241 24.7719 46.5241 22.14C46.5241 18.6108 45.2081 15.2261 42.8657 12.7305C40.5232 10.235 37.3461 8.83301 34.0334 8.83301V8.83301ZM34.0334 30.1242C32.5511 30.1242 31.1021 29.656 29.8697 28.7787C28.6372 27.9013 27.6767 26.6544 27.1094 25.1954C26.5422 23.7365 26.3938 22.1312 26.6829 20.5824C26.9721 19.0336 27.6859 17.6109 28.734 16.4943C29.7821 15.3777 31.1175 14.6173 32.5713 14.3092C34.0251 14.0012 35.5319 14.1593 36.9014 14.7636C38.2708 15.3679 39.4413 16.3912 40.2648 17.7042C41.0883 19.0172 41.5278 20.5609 41.5278 22.14C41.5278 24.2576 40.7382 26.2884 39.3328 27.7857C37.9273 29.283 36.021 30.1242 34.0334 30.1242V30.1242ZM56.5167 59.3997V56.7383C56.5167 51.7973 54.6743 47.0588 51.3949 43.565C48.1154 40.0712 43.6675 38.1084 39.0297 38.1084H29.0371C24.3992 38.1084 19.9513 40.0712 16.6719 43.565C13.3924 47.0588 11.55 51.7973 11.55 56.7383V59.3997H16.5463V56.7383C16.5463 53.209 17.8623 49.8243 20.2048 47.3288C22.5473 44.8332 25.7243 43.4312 29.0371 43.4312H39.0297C42.3424 43.4312 45.5195 44.8332 47.862 47.3288C50.2044 49.8243 51.5204 53.209 51.5204 56.7383V59.3997H56.5167Z" fill="white"/>
</g>
</svg>
