<svg width="27" height="40" viewBox="0 0 27 40" fill="none" xmlns="http://www.w3.org/2000/svg">
<path d="M26.5772 15.5794C21.427 14.2918 16.5773 13.176 11.7704 11.8455C9.83905 11.3305 8.0794 11.2446 6.23391 12.103C4.43133 12.9185 2.54292 13.5622 0.182403 14.4635C5.71888 15.8798 10.7833 17.2532 15.8476 18.412C17.3927 18.7554 17.779 19.3991 17.736 20.8584C17.6073 23.0472 17.6931 25.2361 17.6931 27.7682C14.2597 26.9099 11.0837 26.1803 7.95064 25.3648C5.71889 24.8069 3.53004 24.2918 1.3412 23.6481C0.826178 23.4764 0.0536461 22.8326 0.0536461 22.4034C-0.0321908 15.0215 0.0107316 7.59657 0.0107316 0C8.68026 2.18884 17.0923 4.29184 25.4614 6.48069C25.9335 6.60944 26.5343 7.38197 26.5343 7.85407C26.6202 10.3004 26.5772 12.8326 26.5772 15.5794Z" fill="#262E47"/>
<path d="M8.80908 40.0002C5.67603 39.2276 2.88633 38.498 0.0537109 37.7684C0.0537109 34.7641 0.0537109 31.9315 0.0537109 28.8843C3.058 29.6139 5.89062 30.3435 8.80908 31.0731C8.80908 34.0774 8.80908 36.91 8.80908 40.0002Z" fill="#262E47"/>
</svg>
